<svg width="255" height="256" viewBox="0 0 255 256" fill="none" xmlns="http://www.w3.org/2000/svg">
<path d="M128 3L205.168 12.5663M128 3L69.3265 33.6122M128 3L192.413 36.1633M128 3L59.1224 10.6531M205.168 12.5663L226.214 27.2347M205.168 12.5663L192.413 36.1633M226.214 27.2347L245.347 54.6582M226.214 27.2347L222.388 66.1378M226.214 27.2347L192.413 36.1633M245.347 54.6582L222.388 66.1378M245.347 54.6582L252.362 125.449M222.388 66.1378L184.76 71.8776M222.388 66.1378L190.5 125.449M222.388 66.1378L252.362 125.449M192.413 36.1633L128 64.8622M192.413 36.1633L184.76 71.8776M128 64.8622L184.76 71.8776M128 64.8622L69.3265 33.6122M128 64.8622L71.2398 71.8776M184.76 71.8776L190.5 125.449M69.3265 33.6122L71.2398 71.8776M69.3265 33.6122L59.1224 10.6531M69.3265 33.6122L29.7857 28.5102M71.2398 71.8776L37.4388 61.0357M71.2398 71.8776L64.8622 125.449M59.1224 10.6531L29.7857 28.5102M29.7857 28.5102L37.4388 61.0357M29.7857 28.5102L13.2041 51.4694M37.4388 61.0357L13.2041 51.4694M37.4388 61.0357L3 125.449M37.4388 61.0357L64.8622 125.449M13.2041 51.4694L3 125.449M3 125.449L9.37755 196.24M3 125.449L31.699 187.311M64.8622 125.449L31.699 187.311M64.8622 125.449L69.3265 182.847M9.37755 196.24L31.699 187.311M9.37755 196.24L27.2347 226.852M31.699 187.311L27.2347 226.852M31.699 187.311L69.3265 182.847M27.2347 226.852L61.6735 217.923M27.2347 226.852L49.5561 242.796M61.6735 217.923L69.3265 182.847M61.6735 217.923L49.5561 242.796M61.6735 217.923L128 189.224M61.6735 217.923L128 253M69.3265 182.847L128 189.224M49.5561 242.796L128 253M190.5 125.449L219.199 191.776M190.5 125.449L182.209 182.847M252.362 125.449L219.199 191.776M252.362 125.449L244.071 205.168M219.199 191.776L182.209 182.847M219.199 191.776L244.071 205.168M219.199 191.776L228.765 226.852M182.209 182.847L128 189.224M182.209 182.847L188.587 221.112M128 189.224L188.587 221.112M188.587 221.112L228.765 226.852M188.587 221.112L200.704 242.796M188.587 221.112L128 253M244.071 205.168L228.765 226.852M228.765 226.852L200.704 242.796M200.704 242.796L128 253" stroke="#999999" stroke-width="4"/>
</svg>
