<svg width="120" height="254" viewBox="0 0 120 254" fill="none" xmlns="http://www.w3.org/2000/svg">
<path d="M2 2H117.646M2 2V252M2 2L27.5102 28.2605M117.646 2V252M117.646 2L92.1361 28.2605M117.646 252H2M117.646 252L92.1361 226.49M2 252L27.5102 226.49M59.8231 61.5238L47.9184 49.2689M59.8231 61.5238L71.7279 49.2689M59.8231 61.5238V194.177M59.8231 194.177L71.7279 206.082M59.8231 194.177L47.9184 206.082M27.5102 28.2605H92.1361M27.5102 28.2605V226.49M27.5102 28.2605L47.9184 49.2689M92.1361 28.2605V226.49M92.1361 28.2605L71.7279 49.2689M92.1361 226.49H27.5102M92.1361 226.49L71.7279 206.082M27.5102 226.49L47.9184 206.082M47.9184 49.2689H71.7279M47.9184 49.2689V206.082M71.7279 49.2689C71.7279 100.973 71.7279 204.721 71.7279 206.082M71.7279 206.082H47.9184" stroke="#999999" stroke-width="4"/>
</svg>
