<svg width="24" height="24" viewBox="0 0 24 24" fill="none" xmlns="http://www.w3.org/2000/svg">
<path d="M21.063 6.93703C19.169 5.04305 16.6607 4 14 4C11.3514 4 8.85391 5.03395 6.96301 6.91164C6.9609 6.91367 6.95863 6.91539 6.95652 6.9175C6.95523 6.91879 6.95418 6.9202 6.95293 6.92148C6.94766 6.92672 6.94227 6.9318 6.93699 6.93703C5.04305 8.83098 4 11.3393 4 14C4 16.6458 5.0318 19.1407 6.9057 21.0309C6.92133 21.0513 6.93785 21.0712 6.95652 21.0898C6.97656 21.1098 6.99801 21.1275 7.02004 21.144C8.90402 22.9863 11.3778 24 14 24C16.6607 24 19.169 22.957 21.063 21.063C22.957 19.169 24 16.6607 24 14C24 11.3393 22.957 8.83098 21.063 6.93703ZM22.8082 13.4141H19.2796V13.4141C19.1687 12.4178 18.7756 11.4791 18.1389 10.6898L20.6398 8.18879C21.8809 9.60504 22.6769 11.4202 22.8082 13.4141ZM14.5859 5.1918C16.5799 5.32313 18.395 6.1191 19.8113 7.36016L17.3102 9.86113C16.5209 9.22441 15.5822 8.83137 14.5859 8.72035V5.1918ZM13.4141 5.1918V8.72035C12.4269 8.83031 11.4962 9.21723 10.7114 9.84371L8.20945 7.34176C9.62266 6.11113 11.4299 5.32246 13.4141 5.1918ZM7.37852 8.16809L9.87855 10.6681C9.23152 11.4618 8.83238 12.4087 8.72039 13.4141H5.1918C5.32375 11.4104 6.12699 9.58734 7.37852 8.16809ZM5.1918 14.5859H8.72035C8.83254 15.593 9.23281 16.5414 9.8818 17.336L7.38195 19.8358C6.12848 18.416 5.32387 16.5915 5.1918 14.5859ZM13.4141 22.8082C11.4317 22.6777 9.62594 21.8904 8.21332 20.6617L10.7155 18.1595C11.4994 18.7841 12.4286 19.1698 13.4141 19.2796V22.8082ZM9.85938 14C9.85938 11.7556 11.7554 9.85953 13.9997 9.85938C13.9998 9.85938 13.9999 9.85938 14 9.85938C14.0001 9.85938 14.0002 9.85938 14.0003 9.85938C16.2446 9.85953 18.1406 11.7556 18.1406 14C18.1406 16.2445 16.2445 18.1406 14 18.1406C11.7555 18.1406 9.85938 16.2445 9.85938 14ZM14.5859 22.8082V19.2796C15.5805 19.1689 16.5177 18.777 17.3062 18.1421L19.8073 20.6433C18.3917 21.8824 16.578 22.677 14.5859 22.8082ZM20.6364 19.8151L18.1356 17.3143C18.7743 16.5242 19.1685 15.5839 19.2796 14.586H22.8082C22.6768 16.5817 21.8794 18.3983 20.6364 19.8151Z" fill="#C4B6B6"/>
</svg>
