<svg width="251" height="254" viewBox="0 0 251 254" fill="none" xmlns="http://www.w3.org/2000/svg">
<path d="M125.858 2L193.21 5.99543L226.6 25.1164M125.858 2L58.7922 5.99543L24.8311 24.8311M125.858 2L66.7831 31.9658M125.858 2L183.221 31.9658M226.6 25.1164L247.434 60.2192L248.861 127.856M226.6 25.1164L183.221 31.9658M226.6 25.1164L221.463 67.0685M226.6 228.884L247.434 194.922L248.861 127.856M226.6 228.884L194.066 248.005L125.858 252M226.6 228.884L221.178 187.217M226.6 228.884L182.936 222.605M125.858 252L58.5069 248.575L25.1164 229.74M125.858 252L182.936 222.605M125.858 252L67.9247 222.734M25.1164 229.74L3.99772 194.352L2 126.715M25.1164 229.74L29.968 187.217M25.1164 229.74L67.9247 222.734M24.8311 24.8311L3.42694 61.0753L2 126.715M24.8311 24.8311L29.6826 67.6393M24.8311 24.8311L66.7831 31.9658M248.861 127.856L221.463 67.0685M248.861 127.856L221.178 187.217M2 126.715L29.6826 67.6393M2 126.715L29.968 187.217M29.6826 67.6393L66.4977 69.0662M29.6826 67.6393L58.5069 126.715M29.968 187.217L58.5069 126.715M29.968 187.217L66.7831 186.075M66.4977 69.0662L58.5069 126.715M66.4977 69.0662L66.7831 31.9658M66.4977 69.0662L125.858 60.79M58.5069 126.715L66.7831 186.075M66.7831 31.9658L125.858 60.79M125.858 60.79L183.221 31.9658M125.858 60.79L181.509 68.21M183.221 31.9658L181.509 32.8262V68.21M221.463 67.0685L181.509 68.21M221.463 67.0685L190.642 126.715M181.509 68.21L190.642 126.715M221.178 187.217L181.795 185.79M221.178 187.217L190.642 126.715M181.795 185.79L126.144 193.495M181.795 185.79L190.642 126.715M181.795 185.79L181.224 221.723L182.936 222.605M182.936 222.605L126.144 193.495M126.144 193.495L66.7831 186.075M126.144 193.495L67.9247 222.734M66.7831 186.075V222.897L67.9247 222.734" stroke="#999999" stroke-width="4"/>
</svg>
