<svg width="194" height="292" viewBox="0 0 194 292" fill="none" xmlns="http://www.w3.org/2000/svg">
<path d="M39.5 2H154.5M39.5 2L2 44.5M39.5 2L46.2868 19.75M154.5 2L192 44.5M154.5 2L147.887 19.75M192 44.5V247.5M192 44.5L176.5 51.9056M2 44.5V247M2 44.5L17.5 51.9056M192 247.5L154.5 290M192 247.5L176.5 239.75M154.5 290H39.5M154.5 290L148.06 272.375M39.5 290L2 247M39.5 290L45.9399 272.375M2 247L17.5 239.422M135.5 238L147 225M135.5 238H58.5M135.5 238L141.62 254.75M147 225C147.167 171.812 147 66 147 66M147 225L161 232M58.5 238L47 225M58.5 238L52.3798 254.75M47 225V66M47 225L33 231.844M59 53L47 66M59 53H135.5M59 53L53 36.5M47 66L33 59.3111M135.5 53L147 66M135.5 53L141.5 36.5M147 66L161 59.3111M33 59.3111V231.844M33 59.3111L17.5 51.9056M33 59.3111L53 36.5M33 231.844L17.5 239.422M33 231.844L52.3798 254.75M17.5 51.9056V239.422M17.5 51.9056L46.2868 19.75M17.5 239.422L45.9399 272.375M161 59.3111V232M161 59.3111L176.5 51.9056M161 59.3111L141.5 36.5M161 232L176.5 239.75M161 232L141.62 254.75M176.5 51.9056V239.75M176.5 51.9056L147.887 19.75M176.5 239.75L148.06 272.375M45.9399 272.375L52.3798 254.75M45.9399 272.375H148.06M52.3798 254.75H141.62M141.62 254.75L148.06 272.375M141.5 36.5H53M141.5 36.5L147.887 19.75M53 36.5L46.2868 19.75M46.2868 19.75H147.887" stroke="#999999" stroke-width="4"/>
</svg>
