<svg width="24" height="24" viewBox="0 0 24 24" fill="none" xmlns="http://www.w3.org/2000/svg">
<g clip-path="url(#clip0_12_28)">
<path d="M5.89062 12C5.89062 10.8109 6.20458 9.69702 6.75003 8.74326V4.69757H2.87291C1.33411 6.78295 0.5 9.32446 0.5 12C0.5 14.6755 1.33411 17.217 2.87291 19.3024H6.75003V15.2567C6.20458 14.303 5.89062 13.1891 5.89062 12Z" fill="#FBBD00"/>
<path d="M12 18.375L9.30469 21.1875L12 24C14.5641 24 16.9997 23.1296 18.9982 21.5239V17.4825H15.1252C14.2031 18.0538 13.1312 18.375 12 18.375Z" fill="#0F9D58"/>
<path d="M6.75004 15.2567L2.87292 19.3024C3.17758 19.7153 3.50933 20.1107 3.8683 20.4853C6.04037 22.7518 8.92826 24 12 24V18.375C9.77081 18.375 7.81703 17.1225 6.75004 15.2567Z" fill="#31AA52"/>
<path d="M23.5 12C23.5 11.2699 23.4367 10.5385 23.3117 9.82609L23.2106 9.24957H12V14.8746H17.4559C16.926 15.9743 16.1114 16.8715 15.1251 17.4826L18.9981 21.524C19.3938 21.2061 19.7727 20.8599 20.1317 20.4853C22.3038 18.2188 23.5 15.2053 23.5 12Z" fill="#3C79E6"/>
<path d="M16.32 7.49217L16.7964 7.98933L20.6082 4.01189L20.1318 3.51473C17.9597 1.24823 15.0718 0 12 0L9.30469 2.8125L12 5.625C13.6318 5.625 15.166 6.28809 16.32 7.49217Z" fill="#CF2D48"/>
<path d="M11.9999 5.625V0C8.92818 0 6.04029 1.24823 3.86818 3.51469C3.50921 3.88927 3.17746 4.28466 2.8728 4.69758L6.74992 8.74327C7.81695 6.8775 9.77074 5.625 11.9999 5.625Z" fill="#EB4132"/>
</g>
<defs>
<clipPath id="clip0_12_28">
<rect width="23" height="24" fill="white" transform="translate(0.5)"/>
</clipPath>
</defs>
</svg>
