<svg width="262" height="255" viewBox="0 0 262 255" fill="none" xmlns="http://www.w3.org/2000/svg">
<path d="M130.73 252L154.698 191.594M130.73 252C148.168 239.178 163.529 226.597 176.992 214.321M130.73 252L106.036 191.594M130.73 252C113.293 239.178 97.9312 226.597 84.4689 214.321M189.217 2.01545V38.1768M189.217 2.01545C203.232 1.72991 216.639 5.41902 227.914 12.5273M189.217 2.01545C178.159 2.24075 166.722 4.94071 155.657 10.3882M189.217 38.1768L227.914 12.5273M189.217 38.1768L155.657 10.3882M189.217 38.1768V67.6617M189.217 38.1768L129.768 53.1982M227.914 12.5273L227.571 60.4702M227.914 12.5273C239.825 20.0366 249.357 31.3616 254.71 45.8476M155.657 10.3882C147.001 14.6499 138.571 20.5931 130.728 28.3486L130.727 28.3485C123.464 21.1664 115.698 15.5384 107.714 11.3609M227.571 60.4702L254.71 45.8476M227.571 60.4702L252.972 110.091M227.571 60.4702L189.217 67.6617M227.571 60.4702L190.416 101.941M254.71 45.8476C261.098 63.1326 261.537 84.9179 252.972 110.091M252.972 110.091L202.641 131.665M252.972 110.091C244.916 133.771 228.894 160.448 202.362 189.197M202.641 131.665L190.416 101.941M202.641 131.665L202.362 189.197M202.641 131.665L159.972 154.199M190.416 101.941L189.217 67.6617M190.416 101.941L159.972 154.199M189.217 67.6617L129.768 53.1982M202.362 189.197C202.057 189.528 201.751 189.859 201.443 190.19M154.698 191.594L159.972 154.199M154.698 191.594L201.443 190.19M154.698 191.594L176.992 214.321M154.698 191.594L103.16 152.76M159.972 154.199L106.036 191.594M201.443 190.19C194.102 198.085 185.969 206.135 176.992 214.321M107.714 11.3609L77.2704 36.9782M107.714 11.3609C97.7208 6.13176 87.3867 3.17517 77.2704 2.2876M77.2704 36.9782V2.2876M77.2704 36.9782L37.9572 9.97552M77.2704 36.9782V66.4631M77.2704 36.9782L129.768 53.1982M77.2704 2.2876C63.2518 1.05766 49.6518 3.80082 37.9572 9.97552M37.9572 9.97552L40.3543 59.7511M37.9572 9.97552C24.4093 17.1288 13.4187 28.8874 7.2973 44.4094M40.3543 59.7511L7.2973 44.4094M40.3543 59.7511V60.7099M7.2973 44.4094C-0.0931852 63.1494 -0.3861 87.3751 10.4872 115.605M10.4872 115.605L40.3543 60.7099M10.4872 115.605L62.4081 133.583M10.4872 115.605C19.4492 138.872 35.9968 164.859 62.4081 192.736M40.3543 60.7099L73.6747 97.3863M40.3543 60.7099L77.2704 66.4631M77.2704 66.4631L73.6747 97.3863M77.2704 66.4631L129.768 53.1982M73.6747 97.3863L62.4081 133.583M73.6747 97.3863L103.16 152.76M62.4081 133.583V192.736M62.4081 133.583L103.16 152.76M62.4081 192.736L106.036 191.594M62.4081 192.736C69.1135 199.814 76.4546 207.014 84.4689 214.321M103.16 152.76L106.036 191.594M106.036 191.594L84.4689 214.321" stroke="#999999" stroke-width="4"/>
</svg>
