<svg width="24" height="24" viewBox="0 0 24 24" fill="none" xmlns="http://www.w3.org/2000/svg">
<path d="M18.8093 7.8957L20.9962 5.68708C21.2108 5.47039 21.2441 5.13296 21.0761 4.8785L19.3672 2.28944C19.2478 2.10871 19.0458 2 18.8292 2H11.993C11.7764 2 11.5744 2.10871 11.4551 2.28944L9.74611 4.8785C9.57815 5.133 9.61145 5.47039 9.82599 5.68708L12.013 7.8957C9.06309 9.20378 7 12.1598 7 15.5889C7 20.2268 10.7732 24 15.4111 24C20.0489 24 23.8221 20.2268 23.8221 15.5889C23.8222 12.1598 21.7591 9.20383 18.8093 7.8957ZM15.4111 22.711C11.484 22.711 8.2891 19.5161 8.2891 15.589C8.2891 11.6619 11.484 8.46696 15.4111 8.46696C19.3382 8.46696 22.5331 11.6619 22.5331 15.589C22.5331 19.5161 19.3382 22.711 15.4111 22.711ZM16.3206 5.87811L15.8597 7.18994C15.7112 7.18208 15.5616 7.17791 15.4112 7.17791C15.2607 7.17791 15.1111 7.18208 14.9626 7.18994L14.5017 5.87811H16.3206ZM14.405 4.58906L14.7095 3.28905H16.1127L16.4172 4.58906H14.405ZM17.1654 7.36246L17.6868 5.87811H18.993L17.4564 7.42992C17.3601 7.40573 17.263 7.38325 17.1654 7.36246ZM19.3405 4.58906H17.7411L17.4367 3.28905H18.4824L19.3405 4.58906ZM12.3399 3.28905H13.3856L13.0811 4.58906H11.4818L12.3399 3.28905ZM11.8293 5.87811H13.1354L13.6569 7.36246C13.5593 7.38325 13.4622 7.40573 13.3659 7.42988L11.8293 5.87811Z" fill="#C4B6B6"/>
<path d="M15.4111 9.76675C12.2007 9.76675 9.58887 12.3786 9.58887 15.589C9.58887 18.7994 12.2007 21.4112 15.4111 21.4112C18.6215 21.4112 21.2333 18.7994 21.2333 15.589C21.2333 12.3786 18.6215 9.76675 15.4111 9.76675ZM15.4111 20.1221C12.9115 20.1221 10.8779 18.0886 10.8779 15.589C10.8779 13.0894 12.9115 11.0558 15.4111 11.0558C17.9107 11.0558 19.9443 13.0894 19.9443 15.589C19.9443 18.0886 17.9107 20.1221 15.4111 20.1221Z" fill="#C4B6B6"/>
</svg>
