<svg width="141" height="256" viewBox="0 0 141 256" fill="none" xmlns="http://www.w3.org/2000/svg">
<path d="M70.4173 3L53.007 33.7135M70.4173 3L87.4028 35.0712M70.4173 3C80.4694 9.18278 89.8586 17.2348 98.2656 26.6976M70.4173 3C60.7102 8.97062 51.6212 16.6844 43.438 25.7285M53.007 33.7135L22.6763 50.4762M53.007 33.7135L43.438 25.7285M53.007 33.7135L70.8838 46.8382M53.007 33.7135L50.9704 69.9196M22.6763 50.4762L29.0205 91.6433M22.6763 50.4762C28.0159 41.4821 36.7169 33.1566 43.438 25.7285M22.6763 50.4762C9.17115 73.2241 3.18486 100.249 2.11372 127.849M70.8838 46.8382L87.4028 35.0712M70.8838 46.8382L89.892 66.7516M70.8838 46.8382L50.9704 69.9196M87.4028 35.0712L98.2656 26.6976M87.4028 35.0712L115.499 50.3609M87.4028 35.0712L89.892 66.7516M98.2656 26.6976C104.617 33.8462 110.407 41.7998 115.499 50.3609M115.499 50.3609L112.973 95.0376M115.499 50.3609C129.044 73.1327 137.648 100.202 138.721 127.849M89.892 66.7516L103.696 127.849M89.892 66.7516L112.973 95.0376M50.9704 69.9196L29.0205 91.6433M50.9704 69.9196L37.1668 127.849M29.0205 91.6433L2.11372 127.849M29.0205 91.6433L37.1668 127.849M2.11372 127.849L30.1519 159.53M2.11372 127.849C1.12264 153.387 6.55756 179.418 20.4606 203.009M30.1519 159.53L37.1668 127.849M30.1519 159.53L50.9704 181.932M30.1519 159.53L20.4606 203.009M37.1668 127.849L50.9704 181.932M103.696 127.849L112.973 95.0376M103.696 127.849L114.331 159.53M103.696 127.849L89.892 181.932M112.973 95.0376L138.721 127.849M138.721 127.849L114.331 159.53M138.721 127.849C139.696 152.987 134.446 178.602 121.022 201.898M114.331 159.53L89.892 181.932M114.331 159.53L121.022 201.898M50.9704 181.932L53.007 218.365M50.9704 181.932L70.8838 205.919M20.4606 203.009L53.007 218.365M20.4606 203.009C25.9317 212.293 32.7141 221.199 40.9323 229.549M53.007 218.365L40.9323 229.549M53.007 218.365L70.4173 253M53.007 218.365L70.8838 205.919M40.9323 229.549C49.2477 237.997 59.0331 245.876 70.4173 253M70.4173 253L89.892 218.365M70.4173 253C93.501 238.554 110.011 221.006 121.022 201.898M70.8838 205.919L89.892 181.932M70.8838 205.919L89.892 218.365M89.892 181.932V218.365M89.892 218.365L121.022 201.898M89.892 218.365L99.5142 229.797" stroke="#999999" stroke-width="4"/>
</svg>
