<svg width="24" height="24" viewBox="0 0 24 24" fill="none" xmlns="http://www.w3.org/2000/svg">
<g clip-path="url(#clip0_16_65)">
<path d="M15.2626 15.769L12.4502 12.9566C12.4501 12.9565 12.4501 12.9565 12.4501 12.9565C12.315 12.8215 12.1305 12.7507 11.9529 12.7507H3.51567C3.33764 12.7507 3.15342 12.8216 3.01847 12.9565C3.01842 12.9565 3.01837 12.9565 3.01837 12.9566L0.205921 15.769C-0.0651573 16.0401 -0.0705479 16.4872 0.205874 16.7635L7.23708 23.7947C7.23712 23.7948 7.23717 23.7948 7.23717 23.7948C7.50595 24.0635 7.95262 24.0734 8.2313 23.7948C8.23134 23.7948 8.23139 23.7948 8.23139 23.7947L15.2626 16.7635C15.5386 16.4877 15.534 16.0402 15.2626 15.769ZM3.80676 14.1569H7.03116V15.5631H2.40051L3.80676 14.1569ZM11.6618 14.1569L13.068 15.5631H8.43741V14.1569H11.6618ZM7.03116 16.9694V21.6L2.40051 16.9694H7.03116ZM8.43741 16.9694H13.068L8.43741 21.6V16.9694Z" fill="#C4B6B6"/>
<path d="M23.7939 3.01837L20.9815 0.205922C20.9814 0.205875 20.9814 0.205875 20.9814 0.205828C20.8466 0.0711562 20.663 0 20.4842 0H12.0469C11.8574 0 11.6762 0.0795 11.5497 0.205828C11.5497 0.205875 11.5496 0.205875 11.5496 0.205922L8.73718 3.01837C8.46526 3.29025 8.46128 3.73706 8.73714 4.01283L15.7683 11.0441C15.7684 11.0441 15.7684 11.0441 15.7684 11.0442C16.0427 11.3183 16.4888 11.3178 16.7626 11.0442C16.7626 11.0441 16.7627 11.0441 16.7627 11.0441L23.7939 4.01283C24.0703 3.73659 24.0655 3.28997 23.7939 3.01837ZM12.338 1.40625H15.5624V2.8125H10.9318L12.338 1.40625ZM20.1931 1.40625L21.5993 2.8125H16.9687V1.40625H20.1931ZM15.5624 4.21875V8.84939L10.9318 4.21875H15.5624ZM16.9687 4.21875H21.5993L16.9687 8.84939V4.21875Z" fill="#C4B6B6"/>
</g>
<defs>
<clipPath id="clip0_16_65">
<rect width="24" height="24" fill="white"/>
</clipPath>
</defs>
</svg>
