<svg width="24" height="24" viewBox="0 0 24 24" fill="none" xmlns="http://www.w3.org/2000/svg">
<g clip-path="url(#clip0_16_106)">
<path d="M23.2969 16.5784C21.8701 16.5784 20.5302 16.028 19.5234 15.0284C18.5171 14.0294 17.963 12.6987 17.963 11.2817C17.963 10.8933 17.6481 10.5786 17.2599 10.5786C16.8715 10.5786 16.5568 10.8933 16.5568 11.2817C16.5568 12.6987 16.0025 14.0294 14.9962 15.0284C13.9894 16.028 12.6495 16.5784 11.2227 16.5784C10.8344 16.5784 10.5196 16.8931 10.5196 17.2815C10.5196 17.6699 10.8344 17.9846 11.2227 17.9846C14.1638 17.9846 16.5568 20.3677 16.5568 23.2969C16.5568 23.6852 16.8715 24 17.2599 24C17.6481 24 17.963 23.6852 17.963 23.2969C17.963 20.3677 20.3558 17.9846 23.2969 17.9846C23.6852 17.9846 24 17.6699 24 17.2815C24 16.8931 23.6852 16.5784 23.2969 16.5784ZM17.2599 20.3106C16.6069 19.0045 15.5396 17.9387 14.2308 17.2853C14.8726 16.9671 15.4651 16.5445 15.9869 16.0263C16.5112 15.5059 16.9384 14.9145 17.2597 14.2736C17.5812 14.9145 18.0084 15.5059 18.5325 16.0263C19.0543 16.5445 19.647 16.9671 20.2886 17.2853C18.98 17.9387 17.9127 19.0045 17.2599 20.3106Z" fill="#C59476"/>
<path d="M9.62036 11.0806C7.54962 11.0806 5.86487 9.40833 5.86487 7.3526C5.86487 6.96442 5.55011 6.64948 5.16174 6.64948C4.77338 6.64948 4.45862 6.96442 4.45862 7.3526C4.45862 9.40833 2.77386 11.0806 0.703125 11.0806C0.314758 11.0806 0 11.3956 0 11.7838C0 12.1721 0.314758 12.4869 0.703125 12.4869C2.77386 12.4869 4.45862 14.1645 4.45862 16.2264C4.45862 16.6146 4.77338 16.9296 5.16174 16.9296C5.55011 16.9296 5.86487 16.6146 5.86487 16.2264C5.86487 14.1645 7.54962 12.4869 9.62036 12.4869C10.0087 12.4869 10.3235 12.1721 10.3235 11.7838C10.3235 11.3956 10.0087 11.0806 9.62036 11.0806ZM5.16174 13.6359C4.71332 12.8718 4.07281 12.2325 3.30688 11.7847C4.07281 11.3377 4.71332 10.7 5.16174 9.9375C5.61017 10.7 6.25067 11.3377 7.0166 11.7847C6.25067 12.2325 5.61017 12.8716 5.16174 13.6359Z" fill="#C59476"/>
<path d="M10.7642 4.85889C12.287 4.85889 13.5261 6.08844 13.5261 7.59961C13.5261 7.98779 13.8409 8.30273 14.2292 8.30273C14.6176 8.30273 14.9324 7.98779 14.9324 7.59961C14.9324 6.0835 16.1714 4.8501 17.6943 4.8501C18.0827 4.8501 18.3975 4.53516 18.3975 4.14697C18.3975 3.75861 18.0827 3.44385 17.6943 3.44385C16.1714 3.44385 14.9324 2.21429 14.9324 0.703125C14.9324 0.314758 14.6176 0 14.2292 0C13.8409 0 13.5261 0.314758 13.5261 0.703125C13.5261 2.21924 12.287 3.45264 10.7642 3.45264C10.3758 3.45264 10.061 3.7674 10.061 4.15576C10.061 4.54413 10.3758 4.85889 10.7642 4.85889ZM14.2309 3.00824C14.5343 3.45795 14.9238 3.84558 15.3757 4.14771C14.9221 4.45148 14.5316 4.84167 14.2276 5.29449C13.9242 4.84479 13.5347 4.45715 13.0828 4.15503C13.5364 3.85126 13.9271 3.46106 14.2309 3.00824Z" fill="#C59476"/>
</g>
<defs>
<clipPath id="clip0_16_106">
<rect width="24" height="24" fill="white"/>
</clipPath>
</defs>
</svg>
