<svg width="156" height="254" viewBox="0 0 156 254" fill="none" xmlns="http://www.w3.org/2000/svg">
<path d="M153.272 129.267L130.131 164.888M153.272 129.267L130.606 89.6927M153.272 129.267C153.272 164.535 145.12 194.122 130.836 216.848M153.272 129.267C153.272 95.1983 144.985 64.5419 131.546 41.9955M78 251.997L55.9125 216.646M78 251.997L99.6125 216.45M78 251.997C67.8767 251.997 57.4874 251.24 48.6545 245.331M78 251.997C87.954 251.997 96.7329 251.348 105.445 245.625M2 126.769L25.0375 89.302M2 126.769L24.2062 164.497M2 126.769C2 109.156 3.48668 95.1197 7.48339 79.9207M2 126.769C2 143.969 3.38395 163.084 7.20496 177.998M78 2L56.15 39.1067M78 2L99.85 39.1067M78 2C88.5179 2 97.8086 8.01214 106.918 14.3653M78 2C67.1525 2 56.1076 8.23581 46.7718 14.9708M56.15 39.1067L77.7468 57.1508M56.15 39.1067L46.7718 14.9708M56.15 39.1067L46.2603 77.5669M56.15 39.1067L23.7259 39.4974M130.606 89.6927L131.319 39.4974M130.606 89.6927L108.622 78.2025M130.606 89.6927L120.663 129.267M130.606 89.6927L146.503 80.2768M131.319 39.4974L99.85 39.1067M131.319 39.4974L131.546 41.9955M99.85 39.1067L106.722 15.0424L106.918 14.3653M99.85 39.1067L108.622 78.2025M99.85 39.1067L77.7468 57.1508M108.622 78.2025L77.7468 57.1508M108.622 78.2025L120.663 129.267M77.7468 57.1508L46.2603 77.5669M46.7718 14.9708C37.8106 21.4356 30.4814 28.1639 23.7259 39.4974M46.2603 77.5669L33.2451 129.267M46.2603 77.5669L25.0375 89.302M33.2451 129.267L24.2062 164.497M33.2451 129.267L25.0375 89.302M33.2451 129.267L47.0918 180.265M24.2062 164.497L47.0918 180.265M24.2062 164.497L7.20496 177.998M24.2062 164.497L24.3088 219.144M47.0918 180.265L77.0429 203.9M47.0918 180.265L55.9125 216.646M77.0429 203.9L99.6125 216.45M77.0429 203.9L55.9125 216.646M77.0429 203.9L107.81 182.444M99.6125 216.45L107.81 182.444M99.6125 216.45L105.445 245.625M99.6125 216.45L130.836 216.848M107.81 182.444L120.663 129.267M107.81 182.444L130.131 164.888M120.663 129.267L130.131 164.888M25.0375 89.302L23.7259 39.4974M25.0375 89.302L7.48339 79.9207M55.9125 216.646L24.3088 219.144M55.9125 216.646L48.6545 245.331M130.131 164.888L130.836 216.848M130.131 164.888L147.216 177.933M23.7259 39.4974C17.2347 50.3874 11.2173 65.7208 7.48339 79.9207M7.20496 177.998C11.1955 193.574 17.05 207.541 24.3088 219.144M24.3088 219.144C31.2681 230.268 39.5183 239.219 48.6545 245.331M105.445 245.625C114.702 239.544 123.791 228.058 130.836 216.848M106.918 14.3653C116.222 20.8536 124.577 30.3033 131.546 41.9955" stroke="#999999" stroke-width="4"/>
</svg>
