<svg width="180" height="255" viewBox="0 0 180 255" fill="none" xmlns="http://www.w3.org/2000/svg">
<path d="M89.8976 3C79.3732 8.79051 68.3115 18.4934 57.7213 30.8031M89.8976 3L72.4202 52.6124M89.8976 3L108.678 52.6124M89.8976 3C101.036 9.12834 112.776 19.6389 123.922 32.984M89.8971 253C56.902 250.383 34.7215 239.599 20.8957 223.829M89.8971 253C108.139 251.553 123.075 247.61 135.122 241.708M89.8971 253L123.922 223.829M89.8971 253L55.2453 223.585M57.7213 30.8031L72.4202 52.6124M57.7213 30.8031C47.1524 43.088 37.0532 57.9693 28.4263 74.1491M72.4202 52.6124L28.4263 74.1491M72.4202 52.6124L123.922 102.501M72.4202 52.6124L57.7213 103.864L108.678 52.6124M28.4263 74.1491L26.8933 130.308M28.4263 74.1491C20.274 89.4389 13.4366 105.888 8.76025 122.402M108.678 52.6124L123.922 32.984M108.678 52.6124L151.369 74.1491M108.678 52.6124L123.922 102.501M123.922 32.984C133.818 44.8324 143.246 58.9152 151.369 74.1491M151.369 74.1491L153.115 130.308M151.369 74.1491C159.88 90.1119 166.958 107.339 171.639 124.583M26.8933 130.308L8.76025 122.402M26.8933 130.308L2.16741 160.568M26.8933 130.308L38.8884 160.568M26.8933 130.308L57.1537 103.864L38.8884 160.568M8.76025 122.402C5.11997 135.257 2.78929 148.152 2.16741 160.568M2.16741 160.568L20.8957 188.375M2.16741 160.568C1.4803 174.287 2.87924 187.424 6.90266 199.28M153.115 130.308L171.639 124.583M153.115 130.308L177.627 160.568M153.115 130.308L141.119 160.568M153.115 130.308L123.922 102.501M171.639 124.583C174.933 136.714 177.04 148.854 177.627 160.568M177.627 160.568L159.112 188.375M177.627 160.568C178.355 175.111 176.74 188.999 172.138 201.402M20.8957 188.375V223.829M20.8957 188.375C20.2414 189.466 11.2944 196.099 6.90266 199.28M20.8957 188.375L38.8884 160.568M20.8957 188.375L49.793 199.28M20.8957 223.829C14.5513 216.593 9.96619 208.308 6.90266 199.28M20.8957 223.829L55.2453 223.585M159.112 188.375V223.585M159.112 188.375L172.138 201.402M159.112 188.375L141.119 160.568M159.112 188.375L130.76 199.28M159.112 223.585C164.849 216.979 169.131 209.508 172.138 201.402M159.112 223.585C159.041 223.666 158.97 223.748 158.899 223.829M55.2453 223.585L49.793 242.081M55.2453 223.585L89.8971 208.549M55.2453 223.585L49.793 199.28M158.899 223.829H123.922M158.899 223.829C152.717 230.88 144.864 236.935 135.122 241.708M123.922 223.829L135.122 241.708M123.922 223.829L89.8971 208.549M123.922 223.829L130.76 199.28M89.8971 208.549L130.76 199.28M89.8971 208.549L49.793 199.28M38.8884 160.568L49.793 199.28M141.119 160.568L130.76 199.28M141.119 160.568L123.922 102.501" stroke="#999999" stroke-width="4"/>
</svg>
