<svg width="254" height="251" viewBox="0 0 254 251" fill="none" xmlns="http://www.w3.org/2000/svg">
<path d="M2 2L38.0401 21.1606M2 2L20.7044 36.2153M2 2L2.4562 248.35M2 2L252 2.4562M20.7044 36.2153V213.679M20.7044 36.2153L59.938 57.2007M20.7044 36.2153L51.2701 125.631M20.7044 213.679L2.4562 248.35M20.7044 213.679L51.2701 125.631M20.7044 213.679L59.938 192.237M2.4562 248.35L38.0401 229.19M2.4562 248.35L252 248.807M38.0401 229.19H216.872M38.0401 229.19L127 200.449M38.0401 229.19L59.938 192.237M216.872 229.19L252 248.807M216.872 229.19L195.887 192.237M216.872 229.19L127 200.449M252 248.807L233.752 213.679M252 248.807V2.4562M233.752 213.679V36.2153M233.752 213.679L203.642 125.631M233.752 213.679L195.887 192.237M233.752 36.2153L252 2.4562M233.752 36.2153L195.887 57.2007M233.752 36.2153L203.642 125.631M252 2.4562L218.241 21.1606M218.241 21.1606H38.0401M218.241 21.1606L127 49.4453M218.241 21.1606L195.887 57.2007M38.0401 21.1606L59.938 57.2007M38.0401 21.1606L127 49.4453M59.938 57.2007L127 49.4453M59.938 57.2007L51.2701 125.631M127 49.4453L195.887 57.2007M195.887 57.2007L203.642 125.631M203.642 125.631L195.887 192.237M195.887 192.237L127 200.449M51.2701 125.631L59.938 192.237M127 200.449L59.938 192.237" stroke="#999999" stroke-width="4"/>
</svg>
