<svg width="172" height="254" viewBox="0 0 172 254" fill="none" xmlns="http://www.w3.org/2000/svg">
<path d="M22.6954 2H146.04M22.6954 2L2.39048 24.7415M22.6954 2L35.9404 21.8675M146.04 2L169.219 25.1788M146.04 2L130.311 21.8675M169.219 25.1788V228.821M169.219 25.1788L149.351 39.2517M169.219 228.821L146.04 252M169.219 228.821L149.351 213.921M146.04 252H25.1788M146.04 252L130.311 232.96M25.1788 252L2 228.821M25.1788 252L35.9404 232.96M2 228.821V25.1788L2.39048 24.7415M2 228.821L16.9007 213.921M16.9007 213.921V39.2517M16.9007 213.921L35.9404 232.96M16.9007 213.921L41.7351 208.126M16.9007 213.921L33.457 126.172M16.9007 39.2517L2.39048 24.7415M16.9007 39.2517L35.9404 21.8675M16.9007 39.2517L39.2517 45.0464M16.9007 39.2517L33.457 126.172M35.9404 21.8675H130.311M35.9404 21.8675L83.9536 39.2517M35.9404 21.8675L39.2517 45.0464M130.311 21.8675L149.351 39.2517M130.311 21.8675L83.9536 39.2517M130.311 21.8675L127 45.0464M149.351 39.2517V213.921M149.351 39.2517L127 45.0464M149.351 39.2517L132.795 126.172M149.351 213.921L130.311 232.96M149.351 213.921L127 208.126M149.351 213.921L132.795 126.172M130.311 232.96H35.9404M130.311 232.96L83.9536 213.921M130.311 232.96L127 208.126M35.9404 232.96L83.9536 213.921M35.9404 232.96L41.7351 208.126M83.9536 39.2517L39.2517 45.0464M83.9536 39.2517L127 45.0464M83.9536 213.921L127 208.126M83.9536 213.921L41.7351 208.126M127 208.126L132.795 126.172M41.7351 208.126L33.457 126.172M127 45.0464L132.795 126.172M39.2517 45.0464L33.457 126.172" stroke="#999999" stroke-width="4"/>
</svg>
