<svg width="254" height="254" viewBox="0 0 254 254" fill="none" xmlns="http://www.w3.org/2000/svg">
<path d="M129.344 2.97656L126.281 5.86719M126.281 5.86719L91.0625 39.1094M126.281 5.86719L162.938 39.1094M126.281 5.86719L123.094 2.97656M91.0625 39.1094L127.781 54.6553M91.0625 39.1094L77.5859 13.5234M91.0625 39.1094L75.9943 75.0714M91.0625 39.1094L39.6953 39.5L39.8906 89.3047M213.523 89.6953L214.695 39.5L162.938 39.1094M213.523 89.6953L178.562 75.707M213.523 89.6953L198.367 127.383M213.523 89.6953L250.828 129.344L212.742 164.891M213.523 89.6953L240.867 77.7812M162.938 39.1094L175.438 12.5469M162.938 39.1094L178.562 75.707M162.938 39.1094L127.781 54.6553M178.562 75.707L127.781 54.6553M178.562 75.707L198.367 127.383M127.781 54.6553L75.9943 75.0714M75.9943 75.0714L54.5878 126.161M75.9943 75.0714L39.8906 89.3047M54.5878 126.161L38.5234 164.5M54.5878 126.161L39.8906 89.3047M54.5878 126.161L76.1642 180.268M38.5234 164.5L76.1642 180.268M38.5234 164.5L3.17188 129.148L39.8906 89.3047M38.5234 164.5L12.3516 175.242M38.5234 164.5L39.5 214.891M76.1642 180.268L126.624 201.405M76.1642 180.268L90.6719 216.648M126.624 201.405L162.547 216.453M126.624 201.405L90.6719 216.648M126.624 201.405L177.227 179.949M162.547 216.453L177.227 179.949M162.547 216.453L126.511 248.545M162.547 216.453L172.898 242.43M162.547 216.453L212.547 216.258L212.742 164.891M177.227 179.949L198.367 127.383M177.227 179.949L212.742 164.891M198.367 127.383L212.742 164.891M39.8906 89.3047L13.1328 77.7812M90.6719 216.648H41.0625M90.6719 216.648L80.125 242.43M90.6719 216.648L126.511 248.545M212.742 164.891L242.039 175.438M126.511 248.545L129.734 251.414M126.511 248.545L123.289 251.414M252 127C252 196.036 196.036 252 127 252C57.9644 252 2 196.036 2 127C2 57.9644 57.9644 2 127 2C196.036 2 252 57.9644 252 127Z" stroke="#999999" stroke-width="4"/>
</svg>
