<svg width="24" height="24" viewBox="0 0 24 24" fill="none" xmlns="http://www.w3.org/2000/svg">
<path d="M23.8913 11.4781L20.4403 6.28891C20.3203 6.10845 20.1183 6.00004 19.902 6.00004H13.0013C13.0009 6.00004 13.0004 6 13 6C12.9996 6 12.9991 6.00004 12.9987 6.00004H6.09803C5.88165 6.00004 5.67964 6.10845 5.55968 6.28891L2.10869 11.4781C1.9317 11.7442 1.97467 12.0999 2.20985 12.316L12.5628 21.8295C12.6864 21.9432 12.8432 22 13 22C13.1568 22 13.3136 21.9432 13.4372 21.8295L23.7902 12.316C24.0254 12.0999 24.0683 11.7442 23.8913 11.4781ZM10.758 11.1892L13 7.81803L15.242 11.1892H10.758ZM15.5272 12.4865L13 19.4533L10.4728 12.4865H15.5272ZM14.209 7.29734H18.6929L16.451 10.6684L14.209 7.29734ZM9.54901 10.6684L7.30708 7.29734H11.7909L9.54901 10.6684ZM8.34 11.1892H3.85606L6.09803 7.81803L8.34 11.1892ZM9.09581 12.4865L11.4885 19.0824L4.31051 12.4865H9.09581ZM16.9042 12.4865H21.6895L14.5115 19.0824L16.9042 12.4865ZM17.66 11.1892L19.902 7.81803L22.1439 11.1892H17.66Z" fill="#C4B6B6"/>
</svg>
