<svg width="254" height="254" viewBox="0 0 254 254" fill="none" xmlns="http://www.w3.org/2000/svg">
<path d="M37.4914 2.39002L2 38.2715M37.4914 2.39002L215.339 2M37.4914 2.39002L49.5819 18.7707M2 38.2715V215.339M2 38.2715L18.3807 49.9719M2 215.339L38.6615 252M2 215.339L18.3807 204.077M38.6615 252H215.339M38.6615 252L50.3786 235.336M215.339 252L252 215.339M215.339 252L203.833 235.265M252 215.339V38.2715M252 215.339L235.359 203.508M252 38.2715L215.339 2M252 38.2715L235.359 49.9719M215.339 2L203.833 18.3807M73.3729 51.922L51.922 72.9828M73.3729 51.922H181.017M73.3729 51.922L61.4774 35.3463M51.922 72.9828V181.017M51.922 72.9828L34.7613 61.6724M181.017 51.922L202.078 73.3729M181.017 51.922L192.328 34.7613M202.078 73.3729V179.847M202.078 73.3729L218.719 61.6724M51.922 181.017L73.7629 202.078M51.922 181.017L35.1513 192.547M73.7629 202.078H181.017M73.7629 202.078L62.0957 218.671M202.078 179.847L181.017 202.078M202.078 179.847L218.719 191.678M181.017 202.078L192.425 218.671M49.5819 18.7707L203.833 18.3807M49.5819 18.7707L61.4774 35.3463M49.5819 18.7707L18.3807 49.9719M34.7613 61.6724L18.3807 49.9719M34.7613 61.6724L61.4774 35.3463M34.7613 61.6724L35.1513 192.547M192.328 34.7613L203.833 18.3807M192.328 34.7613L61.4774 35.3463M192.328 34.7613L218.719 61.6724M203.833 18.3807L235.359 49.9719M18.3807 49.9719V204.077M235.359 49.9719L218.719 61.6724M235.359 49.9719V203.508M218.719 61.6724V191.678M218.719 191.678L235.359 203.508M218.719 191.678L192.425 218.671M235.359 203.508L203.833 235.265M203.833 235.265L192.425 218.671M203.833 235.265L50.3786 235.336M192.425 218.671H62.0957M62.0957 218.671L50.3786 235.336M62.0957 218.671L35.1513 192.547M50.3786 235.336L18.3807 204.077M18.3807 204.077L35.1513 192.547" stroke="#999999" stroke-width="4"/>
</svg>
