<svg width="125" height="125" viewBox="0 0 125 125" fill="none" xmlns="http://www.w3.org/2000/svg">
<g clip-path="url(#clip0_10010_374)">
<path d="M121.372 76.5245C129.127 44.0814 109.114 11.4941 76.6708 3.73857C44.2277 -4.01694 11.6404 15.9963 3.88487 48.4393C-3.87063 80.8823 16.1426 113.47 48.5856 121.225C81.0286 128.981 113.616 108.968 121.372 76.5245Z" stroke="#F0E9E0" stroke-width="2" stroke-miterlimit="10"/>
<path d="M81.7766 23.7681L62.5347 4.52625L43.2928 23.7681L62.5347 43.01L81.7766 23.7681Z" stroke="#F0E9E0" stroke-width="2" stroke-miterlimit="10"/>
<path d="M81.7766 101.201L62.5347 81.959L43.2928 101.201L62.5347 120.443L81.7766 101.201Z" stroke="#F0E9E0" stroke-width="2" stroke-miterlimit="10"/>
<path d="M59.7335 19.2159L33.449 12.1733L26.4065 38.4578L52.6909 45.5004L59.7335 19.2159Z" stroke="#F0E9E0" stroke-width="2" stroke-miterlimit="10"/>
<path d="M98.3995 86.4633L72.1151 79.4208L65.0725 105.705L91.3569 112.748L98.3995 86.4633Z" stroke="#F0E9E0" stroke-width="2" stroke-miterlimit="10"/>
<path d="M38.458 26.4065L12.1736 33.4491L19.2161 59.7335L45.5006 52.691L38.458 26.4065Z" stroke="#F0E9E0" stroke-width="2" stroke-miterlimit="10"/>
<path d="M105.705 65.0725L79.4208 72.1151L86.4634 98.3996L112.748 91.357L105.705 65.0725Z" stroke="#F0E9E0" stroke-width="2" stroke-miterlimit="10"/>
<path d="M23.7682 43.2927L4.52631 62.5345L23.7682 81.7764L43.0101 62.5346L23.7682 43.2927Z" stroke="#F0E9E0" stroke-width="2" stroke-miterlimit="10"/>
<path d="M101.201 43.2929L81.9593 62.5348L101.201 81.7767L120.443 62.5348L101.201 43.2929Z" stroke="#F0E9E0" stroke-width="2" stroke-miterlimit="10"/>
<path d="M19.2064 65.3205L12.1638 91.605L38.4483 98.6475L45.4908 72.3631L19.2064 65.3205Z" stroke="#F0E9E0" stroke-width="2" stroke-miterlimit="10"/>
<path d="M86.3165 26.4158L79.2739 52.7002L105.558 59.7428L112.601 33.4583L86.3165 26.4158Z" stroke="#F0E9E0" stroke-width="2" stroke-miterlimit="10"/>
<path d="M26.6106 86.5714L33.6531 112.856L59.9376 105.813L52.895 79.5288L26.6106 86.5714Z" stroke="#F0E9E0" stroke-width="2" stroke-miterlimit="10"/>
<path d="M65.1394 19.5625L72.182 45.8469L98.4665 38.8044L91.4239 12.5199L65.1394 19.5625Z" stroke="#F0E9E0" stroke-width="2" stroke-miterlimit="10"/>
</g>
<defs>
<clipPath id="clip0_10010_374">
<rect width="125" height="125" fill="white"/>
</clipPath>
</defs>
</svg>
